<svg width="232" height="51" viewBox="0 0 232 51" fill="none" xmlns="http://www.w3.org/2000/svg">
<path d="M35.2588 8.34312V50.207H40.9204V28.8365L40.7735 16.2507L40.6812 8.34312H35.2588Z" fill="#F3EFEA"/>
<path d="M40.7735 16.2507L40.9204 28.8365C40.9204 23.8926 42.1697 20.0916 44.6682 17.4336C47.1667 14.7224 50.6222 13.3668 55.0345 13.3668C55.2471 13.3668 55.4598 13.3934 55.6724 13.4465H56.3103V7.94442C52.217 7.94442 48.7881 8.79498 46.0238 10.4961C43.2594 12.1441 41.943 13.0611 40.7735 16.2507Z" fill="#F3EFEA"/>
<path d="M80.3621 49.8349C76.3219 49.8349 72.6805 48.9311 69.4377 47.1237C66.248 45.2631 63.7229 42.738 61.8623 39.5483C60.0017 36.3055 59.0714 32.6109 59.0714 28.4643C59.0714 24.2647 60.0017 20.57 61.8623 17.3804C63.7229 14.1908 66.248 11.6922 69.4377 9.88477C72.6273 8.07732 76.2688 7.17358 80.3621 7.17358C84.5087 7.17358 88.1767 8.07732 91.3664 9.88477C94.6091 11.6922 97.1343 14.1908 98.9417 17.3804C100.802 20.57 101.733 24.2647 101.733 28.4643C101.733 32.6109 100.802 36.3055 98.9417 39.5483C97.1343 42.738 94.6091 45.2631 91.3664 47.1237C88.1236 48.9311 84.4555 49.8349 80.3621 49.8349ZM80.3621 44.8112C83.3923 44.8112 86.0769 44.1467 88.4159 42.8177C90.755 41.4355 92.589 39.5217 93.918 37.0764C95.3002 34.5778 95.9913 31.7071 95.9913 28.4643C95.9913 25.1684 95.3002 22.2977 93.918 19.8524C92.589 17.407 90.755 15.5198 88.4159 14.1908C86.0769 12.8086 83.4189 12.1175 80.4419 12.1175C77.4649 12.1175 74.8069 12.8086 72.4678 14.1908C70.1287 15.5198 68.2681 17.407 66.886 19.8524C65.5038 22.2977 64.8127 25.1684 64.8127 28.4643C64.8127 31.7071 65.5038 34.5778 66.886 37.0764C68.2681 39.5217 70.1287 41.4355 72.4678 42.8177C74.8069 44.1467 77.4383 44.8112 80.3621 44.8112Z" fill="#F3EFEA"/>
<path d="M144.903 7.01416C144.903 29.1644 111.677 29.1644 111.677 7.01416" stroke="#F3EFEA" stroke-width="4.98379"/>
<path d="M0.384766 25.1037C8.71543 25.1037 27.1619 28.7303 27.1619 50.2073" stroke="#F3EFEA" stroke-width="4.98724"/>
<line x1="2.49368" y1="50.2073" x2="2.49369" y2="0.000148664" stroke="#F3EFEA" stroke-width="4.98724"/>
<path d="M2.47705 24.661C10.9873 26.7099 25.0703 22.1639 25.0703 0" stroke="#F3EFEA" stroke-width="4.98724"/>
<path d="M111.677 50.207V7.01416" stroke="#F3EFEA" stroke-width="4.98379"/>
<path d="M144.903 50.207V7.01416" stroke="#F3EFEA" stroke-width="4.98379"/>
<path d="M154.871 50.2071H161.555C174.307 36.3853 186.408 44.448 190.865 50.2071H198.063L180.066 7.01416H172.868L154.871 50.2071Z" fill="#F3EFEA"/>
<path d="M176.467 14.2134L187.265 39.4092C183.665 37.6095 174.307 35.0899 165.668 39.4092L176.467 14.2134Z" fill="black"/>
<path d="M201.113 17.6738V5.95883H203.289V15.8329H209.414V17.6738H201.113ZM216.453 17.6738V15.8664L216.336 15.4814V12.3184C216.336 11.7048 216.152 11.2306 215.784 10.8959C215.416 10.55 214.858 10.3771 214.11 10.3771C213.608 10.3771 213.112 10.4552 212.621 10.6114C212.141 10.7676 211.734 10.9851 211.399 11.264L210.579 9.7411C211.059 9.37291 211.628 9.09956 212.286 8.92105C212.956 8.73138 213.647 8.63654 214.361 8.63654C215.656 8.63654 216.654 8.94894 217.357 9.57374C218.071 10.1874 218.428 11.1413 218.428 12.4355V17.6738H216.453ZM213.642 17.791C212.972 17.791 212.387 17.6794 211.884 17.4563C211.382 17.222 210.992 16.904 210.713 16.5023C210.445 16.0895 210.311 15.6265 210.311 15.1133C210.311 14.6112 210.428 14.1593 210.663 13.7577C210.908 13.356 211.304 13.038 211.851 12.8037C212.398 12.5694 213.123 12.4523 214.027 12.4523H216.621V13.8413H214.177C213.463 13.8413 212.983 13.9585 212.738 14.1928C212.493 14.4159 212.37 14.6949 212.37 15.0296C212.37 15.4089 212.52 15.7102 212.822 15.9333C213.123 16.1565 213.541 16.268 214.077 16.268C214.59 16.268 215.048 16.1509 215.449 15.9166C215.862 15.6823 216.158 15.3364 216.336 14.879L216.688 16.1341C216.487 16.6585 216.124 17.0658 215.6 17.3558C215.087 17.6459 214.434 17.791 213.642 17.791ZM226.067 17.791C225.308 17.791 224.633 17.6236 224.042 17.2889C223.45 16.9542 222.982 16.4521 222.636 15.7827C222.301 15.1021 222.134 14.243 222.134 13.2054C222.134 12.1566 222.307 11.2975 222.653 10.6281C223.01 9.95866 223.484 9.46217 224.075 9.13861C224.678 8.8039 225.341 8.63654 226.067 8.63654C226.948 8.63654 227.724 8.82621 228.393 9.20556C229.074 9.5849 229.609 10.1149 230 10.7954C230.401 11.476 230.602 12.2793 230.602 13.2054C230.602 14.1314 230.401 14.9347 230 15.6153C229.609 16.2959 229.074 16.8315 228.393 17.222C227.724 17.6013 226.948 17.791 226.067 17.791ZM221.113 17.6738V5.25593H223.205V10.8122L223.038 13.1887L223.104 15.5651V17.6738H221.113ZM225.832 16.0003C226.334 16.0003 226.781 15.8887 227.171 15.6655C227.573 15.4424 227.891 15.1188 228.125 14.6949C228.359 14.2709 228.477 13.7744 228.477 13.2054C228.477 12.6252 228.359 12.1287 228.125 11.7159C227.891 11.2919 227.573 10.9684 227.171 10.7452C226.781 10.5221 226.334 10.4105 225.832 10.4105C225.33 10.4105 224.878 10.5221 224.477 10.7452C224.075 10.9684 223.757 11.2919 223.523 11.7159C223.289 12.1287 223.171 12.6252 223.171 13.2054C223.171 13.7744 223.289 14.2709 223.523 14.6949C223.757 15.1188 224.075 15.4424 224.477 15.6655C224.878 15.8887 225.33 16.0003 225.832 16.0003Z" fill="#F3EFEA"/>
</svg>
